<?xml version="1.0" standalone="no"?>
<!DOCTYPE svg PUBLIC "-//W3C//DTD SVG 20010904//EN"
 "http://www.w3.org/TR/2001/REC-SVG-20010904/DTD/svg10.dtd">
<svg version="1.0" xmlns="http://www.w3.org/2000/svg"
 width="700.000000pt" height="700.000000pt" viewBox="0 0 700.000000 700.000000"
 preserveAspectRatio="xMidYMid meet">
<metadata>
Created by potrace 1.11, written by Peter Selinger 2001-2013
</metadata>
<g transform="translate(0.000000,700.000000) scale(0.100000,-0.100000)"
fill="#000000" stroke="none">
<path d="M2090 6413 c-561 -32 -1083 -377 -1335 -883 -117 -235 -170 -466
-169 -735 1 -88 12 -233 19 -245 2 -3 6 -25 10 -50 12 -81 76 -273 124 -374
100 -208 284 -440 451 -568 39 -29 70 -55 70 -58 -1 -3 -30 -27 -66 -55 -229
-175 -442 -481 -533 -765 -55 -171 -75 -308 -74 -501 2 -816 623 -1501 1438
-1586 115 -12 379 -5 426 11 8 3 30 7 49 10 50 7 236 64 290 88 25 11 69 31
98 44 54 25 213 119 248 147 150 121 216 186 306 299 28 34 53 64 57 65 3 1
29 -27 56 -63 145 -189 379 -370 602 -469 264 -116 514 -157 803 -132 751 64
1373 677 1447 1426 43 436 -81 846 -358 1187 -64 78 -197 207 -265 256 -24 17
-44 34 -43 37 0 3 29 29 65 56 117 90 245 229 337 365 253 372 334 846 223
1290 -19 72 -22 84 -61 185 -140 361 -425 675 -772 849 -135 67 -336 133 -460
150 -24 3 -61 9 -83 12 -60 9 -275 9 -354 1 -246 -26 -501 -121 -723 -269
-114 -76 -323 -273 -378 -355 -15 -24 -30 -43 -34 -43 -3 0 -29 30 -58 68 -46
60 -170 186 -248 252 -48 41 -225 156 -285 185 -135 66 -341 132 -461 149 -25
4 -58 9 -72 11 -32 6 -226 11 -287 8z m2825 -587 c329 -28 632 -232 797 -536
212 -389 136 -882 -184 -1201 -128 -127 -324 -239 -467 -266 -14 -2 -27 -6
-31 -8 -6 -4 -106 -17 -160 -20 -19 -2 -139 -3 -265 -4 l-230 -1 0 -290 0
-290 240 -1 c251 -1 297 -3 380 -19 84 -16 99 -19 130 -31 17 -6 39 -14 50
-18 234 -85 459 -298 567 -537 84 -184 110 -413 70 -609 -45 -221 -142 -398
-300 -547 -102 -96 -187 -149 -347 -218 -23 -10 -131 -41 -160 -45 -77 -13
-111 -16 -195 -16 -333 1 -638 160 -830 433 -64 91 -95 150 -131 253 -51 148
-57 204 -58 535 l-1 235 -290 0 -290 0 -1 -240 c0 -271 -2 -297 -24 -405 -78
-382 -374 -688 -760 -784 -121 -30 -260 -34 -424 -12 -55 8 -206 58 -269 90
-178 90 -343 251 -441 429 -32 57 -79 173 -87 210 -2 10 -5 26 -8 35 -36 120
-35 349 3 492 98 368 395 659 754 740 120 26 147 28 447 29 l225 1 0 290 0
290 -230 1 c-258 1 -278 2 -355 13 -364 53 -663 293 -808 651 -50 123 -76 352
-56 495 54 386 334 718 706 835 104 33 118 35 265 42 109 5 148 2 277 -23 50
-9 146 -44 210 -76 290 -145 500 -420 556 -728 16 -88 18 -119 19 -390 l1
-235 290 0 290 0 1 235 c1 129 2 255 4 280 7 112 51 273 103 375 126 251 383
463 638 529 91 23 113 27 204 33 47 3 87 7 88 9 2 1 9 1 15 -1 7 -2 39 -6 72
-9z"/>
<path d="M2070 5231 c-133 -42 -222 -118 -277 -239 -30 -65 -36 -88 -38 -163
-5 -131 30 -221 125 -322 46 -50 154 -110 220 -123 37 -7 497 -13 516 -7 7 2
10 84 9 251 -2 261 -12 331 -56 394 -11 14 -19 30 -19 36 0 15 -101 106 -150
134 -94 55 -229 70 -330 39z"/>
<path d="M4700 5233 c-116 -30 -221 -116 -275 -227 -45 -93 -51 -137 -50 -406
l0 -225 234 0 c261 0 321 8 409 55 148 79 237 236 227 403 -11 189 -116 327
-299 394 -56 20 -179 24 -246 6z"/>
<path d="M3210 3500 l0 -290 290 0 290 0 0 290 0 290 -290 0 -290 0 0 -290z"/>
<path d="M2135 2619 c-174 -22 -317 -145 -370 -319 -4 -14 -9 -61 -10 -104 -4
-118 36 -222 118 -307 85 -89 181 -131 309 -135 158 -4 318 89 388 225 49 98
53 123 54 384 1 136 0 251 -3 255 -7 9 -414 10 -486 1z"/>
<path d="M4381 2615 c-13 -17 -6 -484 8 -535 92 -328 494 -437 732 -198 235
238 125 637 -201 728 -58 17 -527 21 -539 5z"/>
</g>
</svg>
